#N canvas -8 0 1920 976 12;
#N canvas 952 0 958 966 pulseWave 0;
#N canvas 0 50 450 300 (subpatch) 0;
#X array waveform 2051 float 0;
#X coords 0 1 2050 -1 200 100 1 0 0;
#X restore 918 32 graph;
#X obj 1680 919 * -1;
#X obj 1729 785 bng 15 250 50 0 empty wave1 empty 17 7 0 10 #fcfcfc #000000 #000000;
#X obj 1624 1013 +~;
#X obj 1635 1046 -~ 1;
#X obj 1569 970 phasor~;
#X msg 1604 925 0;
#X obj 1824 745 bng 15 250 50 0 empty wave2 empty 17 7 0 10 #fcfcfc #000000 #000000;
#X obj 1870 821 bng 15 250 50 0 empty wave3 empty 17 7 0 10 #fcfcfc #000000 #000000;
#X obj 1677 966 phasor~;
#X obj 1986 733 loadbang;
#X obj 1637 1232 *~;
#X obj 1628 1277 dac~;
#X obj 1720 1094 vsl 15 128 0 1 0 0 empty empty empty 0 -9 0 10 #fcfcfc #000000 #000000 0 1;
#X obj 1870 1202 metro 100;
#X obj 1871 1172 tgl 15 0 empty empty empty 17 7 0 10 #fcfcfc #000000 #000000 0 1;
#X obj 1870 1234 tabwrite~ waveform;
#X msg 1303 546 261.6;
#X msg 1347 549 277.2;
#X msg 1403 547 293.7;
#X msg 1451 547 311.1;
#X msg 1501 545 329.6;
#X msg 1552 547 349.2;
#X msg 1612 547 370;
#X msg 1653 549 392;
#X msg 1699 551 415;
#X msg 1743 552 440;
#X msg 1789 553 466.2;
#X msg 1848 553 493.9;
#X obj 1451 409 select 0 1 2 3 4 5 6 7 8 9 10 11;
#X obj 1498 364 random 12;
#X obj 1532 310 bng 19 250 50 0 empty empty empty 0 -10 0 12 #fcfcfc #000000 #000000;
#X text 1360 218 All Semitones;
#X msg 1729 898 0.125;
#X msg 1815 882 0.25;
#X msg 1895 904 0.5;
#X msg 1961 925 0.75;
#X obj 1921 780 bng 15 250 50 0 empty wave3 empty 17 7 0 10 #fcfcfc #000000 #000000;
#X msg 2192 559 392;
#X msg 2256 559 440;
#X obj 2097 345 bng 19 250 50 0 empty empty empty 0 -10 0 12 #fcfcfc #000000 #000000;
#X obj 2106 429 select 0 1 2 3 4 5;
#X obj 2154 386 random 5;
#X msg 1961 565 261.63;
#X msg 2019 561 293.66;
#X msg 2082 562 311.13;
#X msg 2134 562 329.63;
#X text 2211 201 C Major Blues;
#X obj 2434 434 random 12;
#X obj 2458 366 bng 19 250 50 0 empty empty empty 0 -10 0 12 #fcfcfc #000000 #000000;
#X msg 2317 575 440;
#X msg 2351 575 493.883;
#X msg 2415 576 523.25;
#X msg 2472 576 587.33;
#X msg 2532 576 659.25;
#X msg 2592 576 698.46;
#X msg 2652 576 830.61;
#X obj 2384 485 select 0 1 2 3 4 5 6;
#X text 2387 250 A Minor Harmonic;
#X text 2232 24 Make it so that unity gives the players a prompt \, and based on what they select in the drop down press one of these buttons;
#X floatatom 1365 855 5 1 8 0 - - - 0;
#X obj 1556 883 /;
#X obj 1718 97 receive pulse1;
#X obj 1794 1024 inlet;
#X msg 1783 1070 0.5;
#X obj 1583 252 spigot;
#X obj 1579 215 bng 19 250 50 0 empty empty empty 0 -10 0 12 #fcfcfc #000000 #000000;
#X obj 1634 207 tgl 19 0 empty empty empty 0 -10 0 12 #fcfcfc #000000 #000000 0 1;
#X obj 1995 227 tgl 19 0 empty empty empty 0 -10 0 12 #fcfcfc #000000 #000000 0 1;
#X obj 1946 275 spigot;
#X obj 1934 220 bng 19 250 50 0 empty empty empty 0 -10 0 12 #fcfcfc #000000 #000000;
#X obj 2432 326 spigot;
#X obj 2476 293 tgl 19 0 empty empty empty 0 -10 0 12 #fcfcfc #000000 #000000 0 1;
#X obj 2404 293 bng 19 250 50 0 empty empty empty 0 -10 0 12 #fcfcfc #000000 #000000;
#X obj 1650 170 receive AllSemi;
#X obj 2000 162 receive CMajorBlue;
#X obj 2530 240 receive AMinorHarm;
#X obj 1159 783 receive ChangeOctave1;
#X obj 1636 1087 *~ -1;
#X obj 1876 1030 r pulse1Vol;
#X connect 1 0 9 0;
#X connect 2 0 33 0;
#X connect 2 0 6 0;
#X connect 3 0 4 0;
#X connect 4 0 78 0;
#X connect 5 0 3 0;
#X connect 6 0 5 1;
#X connect 7 0 34 0;
#X connect 7 0 6 0;
#X connect 8 0 35 0;
#X connect 8 0 6 0;
#X connect 9 0 3 1;
#X connect 10 0 2 0;
#X connect 11 0 12 0;
#X connect 11 0 12 1;
#X connect 11 0 16 0;
#X connect 13 0 11 1;
#X connect 14 0 16 0;
#X connect 15 0 14 0;
#X connect 17 0 61 0;
#X connect 18 0 61 0;
#X connect 19 0 61 0;
#X connect 20 0 61 0;
#X connect 21 0 61 0;
#X connect 22 0 61 0;
#X connect 23 0 61 0;
#X connect 24 0 61 0;
#X connect 25 0 61 0;
#X connect 26 0 61 0;
#X connect 27 0 61 0;
#X connect 28 0 61 0;
#X connect 29 0 17 0;
#X connect 29 1 18 0;
#X connect 29 2 19 0;
#X connect 29 3 20 0;
#X connect 29 4 21 0;
#X connect 29 5 22 0;
#X connect 29 6 23 0;
#X connect 29 7 24 0;
#X connect 29 8 25 0;
#X connect 29 9 26 0;
#X connect 29 10 27 0;
#X connect 29 11 28 0;
#X connect 30 0 29 0;
#X connect 31 0 30 0;
#X connect 33 0 9 1;
#X connect 34 0 9 1;
#X connect 35 0 9 1;
#X connect 36 0 9 1;
#X connect 37 0 36 0;
#X connect 37 0 6 0;
#X connect 38 0 61 0;
#X connect 39 0 61 0;
#X connect 40 0 42 0;
#X connect 41 0 43 0;
#X connect 41 1 44 0;
#X connect 41 2 45 0;
#X connect 41 3 46 0;
#X connect 41 4 38 0;
#X connect 41 5 39 0;
#X connect 42 0 41 0;
#X connect 43 0 61 0;
#X connect 44 0 61 0;
#X connect 45 0 61 0;
#X connect 46 0 61 0;
#X connect 48 0 57 0;
#X connect 49 0 48 0;
#X connect 50 0 61 0;
#X connect 51 0 61 0;
#X connect 52 0 61 0;
#X connect 53 0 61 0;
#X connect 54 0 61 0;
#X connect 55 0 61 0;
#X connect 56 0 61 0;
#X connect 57 0 50 0;
#X connect 57 1 51 0;
#X connect 57 2 52 0;
#X connect 57 3 53 0;
#X connect 57 4 54 0;
#X connect 57 5 55 0;
#X connect 57 6 56 0;
#X connect 60 0 61 1;
#X connect 61 0 5 0;
#X connect 61 0 1 0;
#X connect 62 0 66 0;
#X connect 62 0 70 0;
#X connect 62 0 73 0;
#X connect 63 0 64 0;
#X connect 64 0 13 0;
#X connect 65 0 31 0;
#X connect 66 0 65 0;
#X connect 67 0 65 1;
#X connect 68 0 69 1;
#X connect 69 0 40 0;
#X connect 70 0 69 0;
#X connect 71 0 49 0;
#X connect 72 0 71 1;
#X connect 73 0 71 0;
#X connect 74 0 67 0;
#X connect 75 0 68 0;
#X connect 76 0 72 0;
#X connect 77 0 60 0;
#X connect 78 0 11 0;
#X connect 79 0 13 0;
#X restore 343 297 pd pulseWave;
#N canvas 1693 0 1648 1030 sequencer 0;
#X obj 535 187 loadbang;
#X msg 535 211 375;
#X obj 491 272 metro;
#X obj 482 224 tgl 19 0 empty empty empty 0 -10 0 12 #fcfcfc #000000 #000000 0 1;
#X obj 434 251 sel 0;
#X obj 389 222 loadbang;
#X obj 424 285 bng 19 250 50 0 empty empty empty 0 -10 0 12 #fcfcfc #000000 #000000;
#X msg 448 319 -1;
#X obj 493 308 bng 19 250 50 0 empty empty empty 0 -10 0 12 #fcfcfc #000000 #000000;
#X obj 485 348 int 1;
#X obj 559 361 + 1;
#X floatatom 483 377 5 0 0 0 - - - 0;
#X obj 486 410 % 8;
#X obj 486 440 + 1;
#X floatatom 486 474 5 0 0 0 - - - 0;
#X obj 472 528 sel 1;
#X obj 529 528 sel 2;
#X obj 585 528 sel 3;
#X obj 639 528 sel 4;
#X obj 690 528 sel 5;
#X obj 741 527 sel 6;
#X obj 793 527 sel 7;
#X obj 844 528 sel 8;
#X obj 472 568 bng 19 250 50 0 empty empty empty 0 -10 0 12 #fcfcfc #000000 #000000;
#X obj 528 569 bng 19 250 50 0 empty empty empty 0 -10 0 12 #fcfcfc #000000 #000000;
#X obj 588 569 bng 19 250 50 0 empty empty empty 0 -10 0 12 #fcfcfc #000000 #000000;
#X obj 644 569 bng 19 250 50 0 empty empty empty 0 -10 0 12 #fcfcfc #000000 #000000;
#X obj 696 569 bng 19 250 50 0 empty empty empty 0 -10 0 12 #fcfcfc #000000 #000000;
#X obj 749 568 bng 19 250 50 0 empty empty empty 0 -10 0 12 #fcfcfc #000000 #000000;
#X obj 802 568 bng 19 250 50 0 empty empty empty 0 -10 0 12 #fcfcfc #000000 #000000;
#X obj 854 568 bng 19 250 50 0 empty empty empty 0 -10 0 12 #fcfcfc #000000 #000000;
#X obj 461 600 s One;
#X obj 520 600 s Two;
#X obj 578 600 s Three;
#X obj 635 601 s Four;
#X obj 687 599 s Five;
#X obj 739 599 s Six;
#X obj 784 601 s Seven;
#X obj 843 598 s Eight;
#X floatatom 530 243 5 0 0 0 - - - 0;
#X obj 255 756 receive One;
#X obj 255 788 bng 19 250 50 0 empty empty empty 0 -10 0 12 #fcfcfc #000000 #000000;
#X obj 255 819 spigot;
#X obj 294 788 tgl 19 0 empty empty empty 0 -10 0 12 #fcfcfc #000000 #000000 0 1;
#X obj 266 851 bng 19 250 50 0 empty empty empty 0 -10 0 12 #fcfcfc #000000 #000000;
#X obj 407 786 bng 19 250 50 0 empty empty empty 0 -10 0 12 #fcfcfc #000000 #000000;
#X obj 407 817 spigot;
#X obj 446 786 tgl 19 0 empty empty empty 0 -10 0 12 #fcfcfc #000000 #000000 0 1;
#X obj 418 849 bng 19 250 50 0 empty empty empty 0 -10 0 12 #fcfcfc #000000 #000000;
#X obj 559 785 bng 19 250 50 0 empty empty empty 0 -10 0 12 #fcfcfc #000000 #000000;
#X obj 559 816 spigot;
#X obj 598 785 tgl 19 0 empty empty empty 0 -10 0 12 #fcfcfc #000000 #000000 0 1;
#X obj 570 848 bng 19 250 50 0 empty empty empty 0 -10 0 12 #fcfcfc #000000 #000000;
#X obj 724 781 bng 19 250 50 0 empty empty empty 0 -10 0 12 #fcfcfc #000000 #000000;
#X obj 724 812 spigot;
#X obj 763 781 tgl 19 0 empty empty empty 0 -10 0 12 #fcfcfc #000000 #000000 0 1;
#X obj 735 844 bng 19 250 50 0 empty empty empty 0 -10 0 12 #fcfcfc #000000 #000000;
#X obj 889 779 bng 19 250 50 0 empty empty empty 0 -10 0 12 #fcfcfc #000000 #000000;
#X obj 889 810 spigot;
#X obj 928 779 tgl 19 0 empty empty empty 0 -10 0 12 #fcfcfc #000000 #000000 0 1;
#X obj 900 842 bng 19 250 50 0 empty empty empty 0 -10 0 12 #fcfcfc #000000 #000000;
#X obj 1039 778 bng 19 250 50 0 empty empty empty 0 -10 0 12 #fcfcfc #000000 #000000;
#X obj 1039 809 spigot;
#X obj 1078 778 tgl 19 0 empty empty empty 0 -10 0 12 #fcfcfc #000000 #000000 0 1;
#X obj 1050 841 bng 19 250 50 0 empty empty empty 0 -10 0 12 #fcfcfc #000000 #000000;
#X obj 1179 776 bng 19 250 50 0 empty empty empty 0 -10 0 12 #fcfcfc #000000 #000000;
#X obj 1179 807 spigot;
#X obj 1218 776 tgl 19 0 empty empty empty 0 -10 0 12 #fcfcfc #000000 #000000 0 1;
#X obj 1190 839 bng 19 250 50 0 empty empty empty 0 -10 0 12 #fcfcfc #000000 #000000;
#X obj 1331 777 bng 19 250 50 0 empty empty empty 0 -10 0 12 #fcfcfc #000000 #000000;
#X obj 1331 808 spigot;
#X obj 1370 777 tgl 19 0 empty empty empty 0 -10 0 12 #fcfcfc #000000 #000000 0 1;
#X obj 1342 840 bng 19 250 50 0 empty empty empty 0 -10 0 12 #fcfcfc #000000 #000000;
#X obj 407 754 receive Two;
#X obj 559 753 receive Three;
#X obj 724 749 receive Four;
#X obj 889 747 receive Five;
#X obj 1039 746 receive Six;
#X obj 1179 744 receive Seven;
#X obj 1331 745 receive Eight;
#X obj 696 212 receive Kick;
#X obj 709 277 bng 19 250 50 0 empty empty empty 0 -10 0 12 #fcfcfc #000000 #000000;
#X msg 709 301 open kick.wav \, 1;
#X obj 709 325 readsf~;
#X obj 709 349 *~ 0.5;
#X obj 709 373 dac~;
#X obj 321 434 % 16;
#X obj 321 458 + 1;
#X floatatom 321 485 5 0 0 0 - - - 0;
#X obj 321 513 sel 1;
#X obj 321 537 bng 19 250 50 0 empty empty empty 0 -10 0 12 #fcfcfc #000000 #000000;
#X obj 321 561 s New_Pattern;
#X obj 350 660 r New_Pattern;
#X obj 350 684 bng 19 250 50 0 empty empty empty 0 -10 0 12 #fcfcfc #000000 #000000;
#X obj 350 708 random 100;
#X floatatom 350 732 5 0 0 0 - - - 0;
#X obj 350 755 < 100;
#X obj 499 659 r New_Pattern;
#X obj 499 683 bng 19 250 50 0 empty empty empty 0 -10 0 12 #fcfcfc #000000 #000000;
#X obj 499 707 random 100;
#X floatatom 499 731 5 0 0 0 - - - 0;
#X obj 662 657 r New_Pattern;
#X obj 662 681 bng 19 250 50 0 empty empty empty 0 -10 0 12 #fcfcfc #000000 #000000;
#X obj 662 705 random 100;
#X floatatom 662 729 5 0 0 0 - - - 0;
#X obj 821 654 r New_Pattern;
#X obj 821 678 bng 19 250 50 0 empty empty empty 0 -10 0 12 #fcfcfc #000000 #000000;
#X obj 821 702 random 100;
#X floatatom 821 726 5 0 0 0 - - - 0;
#X obj 982 651 r New_Pattern;
#X obj 982 675 bng 19 250 50 0 empty empty empty 0 -10 0 12 #fcfcfc #000000 #000000;
#X obj 982 699 random 100;
#X floatatom 982 723 5 0 0 0 - - - 0;
#X obj 982 746 < 100;
#X obj 1124 651 r New_Pattern;
#X obj 1124 675 bng 19 250 50 0 empty empty empty 0 -10 0 12 #fcfcfc #000000 #000000;
#X obj 1124 699 random 100;
#X floatatom 1124 723 5 0 0 0 - - - 0;
#X obj 1280 651 r New_Pattern;
#X obj 1280 675 bng 19 250 50 0 empty empty empty 0 -10 0 12 #fcfcfc #000000 #000000;
#X obj 1280 699 random 100;
#X floatatom 1280 723 5 0 0 0 - - - 0;
#X obj 1431 652 r New_Pattern;
#X obj 1431 676 bng 19 250 50 0 empty empty empty 0 -10 0 12 #fcfcfc #000000 #000000;
#X obj 1431 700 random 100;
#X floatatom 1431 724 5 0 0 0 - - - 0;
#X obj 499 754 < 80;
#X obj 662 752 < 5;
#X obj 821 749 < 45;
#X obj 1124 746 < 70;
#X obj 1280 746 < 5;
#X obj 1431 747 < 60;
#X obj 934 143 bng 19 250 50 0 empty empty empty 0 -10 0 12 #fcfcfc #000000 #000000;
#X obj 935 107 receive Signal;
#X text 1131 148 Have this send a signal out randomly choosing between our triangle \, Pulse \, Pulse \, Noise \, sampler;
#X obj 972 218 select 0 1 2 3 4;
#X obj 573 908 send Signal;
#X obj 1142 366 send noise;
#X obj 1231 367 send triangle;
#X obj 914 353 send pulse1;
#X obj 1045 355 send pulse2;
#X floatatom 906 215 5 0 0 0 - - - 0;
#X obj 1349 366 send sampler;
#X obj 935 182 random 5;
#X obj 467 183 inlet;
#X connect 0 0 1 0;
#X connect 1 0 39 0;
#X connect 2 0 8 0;
#X connect 3 0 2 0;
#X connect 3 0 4 0;
#X connect 4 0 6 0;
#X connect 5 0 6 0;
#X connect 6 0 7 0;
#X connect 7 0 9 0;
#X connect 8 0 9 0;
#X connect 9 0 10 0;
#X connect 9 0 11 0;
#X connect 10 0 9 1;
#X connect 11 0 12 0;
#X connect 11 0 86 0;
#X connect 12 0 13 0;
#X connect 13 0 14 0;
#X connect 14 0 15 0;
#X connect 14 0 16 0;
#X connect 14 0 17 0;
#X connect 14 0 18 0;
#X connect 14 0 19 0;
#X connect 14 0 20 0;
#X connect 14 0 21 0;
#X connect 14 0 22 0;
#X connect 15 0 23 0;
#X connect 16 0 24 0;
#X connect 17 0 25 0;
#X connect 18 0 26 0;
#X connect 19 0 27 0;
#X connect 20 0 28 0;
#X connect 21 0 29 0;
#X connect 22 0 30 0;
#X connect 23 0 31 0;
#X connect 24 0 32 0;
#X connect 25 0 33 0;
#X connect 26 0 34 0;
#X connect 27 0 35 0;
#X connect 28 0 36 0;
#X connect 29 0 37 0;
#X connect 30 0 38 0;
#X connect 39 0 2 1;
#X connect 40 0 41 0;
#X connect 41 0 42 0;
#X connect 42 0 44 0;
#X connect 43 0 42 1;
#X connect 44 0 136 0;
#X connect 45 0 46 0;
#X connect 46 0 48 0;
#X connect 47 0 46 1;
#X connect 48 0 136 0;
#X connect 49 0 50 0;
#X connect 50 0 52 0;
#X connect 51 0 50 1;
#X connect 52 0 136 0;
#X connect 53 0 54 0;
#X connect 54 0 56 0;
#X connect 55 0 54 1;
#X connect 56 0 136 0;
#X connect 57 0 58 0;
#X connect 58 0 60 0;
#X connect 59 0 58 1;
#X connect 60 0 136 0;
#X connect 61 0 62 0;
#X connect 62 0 64 0;
#X connect 63 0 62 1;
#X connect 64 0 136 0;
#X connect 65 0 66 0;
#X connect 66 0 68 0;
#X connect 67 0 66 1;
#X connect 68 0 136 0;
#X connect 69 0 70 0;
#X connect 70 0 72 0;
#X connect 71 0 70 1;
#X connect 72 0 136 0;
#X connect 73 0 45 0;
#X connect 74 0 49 0;
#X connect 75 0 53 0;
#X connect 76 0 57 0;
#X connect 77 0 61 0;
#X connect 78 0 65 0;
#X connect 79 0 69 0;
#X connect 80 0 81 0;
#X connect 81 0 82 0;
#X connect 82 0 83 0;
#X connect 83 0 84 0;
#X connect 84 0 85 0;
#X connect 84 0 85 1;
#X connect 86 0 87 0;
#X connect 87 0 88 0;
#X connect 88 0 89 0;
#X connect 89 0 90 0;
#X connect 90 0 91 0;
#X connect 92 0 93 0;
#X connect 93 0 94 0;
#X connect 94 0 95 0;
#X connect 95 0 96 0;
#X connect 96 0 43 0;
#X connect 97 0 98 0;
#X connect 98 0 99 0;
#X connect 99 0 100 0;
#X connect 100 0 126 0;
#X connect 101 0 102 0;
#X connect 102 0 103 0;
#X connect 103 0 104 0;
#X connect 104 0 127 0;
#X connect 105 0 106 0;
#X connect 106 0 107 0;
#X connect 107 0 108 0;
#X connect 108 0 128 0;
#X connect 109 0 110 0;
#X connect 110 0 111 0;
#X connect 111 0 112 0;
#X connect 112 0 113 0;
#X connect 113 0 59 0;
#X connect 114 0 115 0;
#X connect 115 0 116 0;
#X connect 116 0 117 0;
#X connect 117 0 129 0;
#X connect 118 0 119 0;
#X connect 119 0 120 0;
#X connect 120 0 121 0;
#X connect 121 0 130 0;
#X connect 122 0 123 0;
#X connect 123 0 124 0;
#X connect 124 0 125 0;
#X connect 125 0 131 0;
#X connect 126 0 47 0;
#X connect 127 0 51 0;
#X connect 128 0 55 0;
#X connect 129 0 63 0;
#X connect 130 0 67 0;
#X connect 131 0 71 0;
#X connect 132 0 143 0;
#X connect 133 0 132 0;
#X connect 135 0 139 0;
#X connect 135 1 140 0;
#X connect 135 2 137 0;
#X connect 135 3 138 0;
#X connect 135 4 142 0;
#X connect 143 0 135 0;
#X connect 143 0 141 0;
#X connect 144 0 3 0;
#X restore 649 308 pd sequencer;
#N canvas 952 0 958 966 triangle 0;
#X obj 982 704 phasor~;
#X obj 997 963 *~;
#X obj 988 1000 dac~;
#X obj 1138 717 phasor~;
#X obj 1137 678 * -1;
#X obj 993 845 +~;
#X msg 1156 624 0;
#X obj 1179 576 bng 15 250 50 0 empty empty empty 17 7 0 10 #fcfcfc #000000 #000000;
#X obj 1143 743 *~ 2;
#X obj 982 737 *~ 2;
#X obj 982 764 -~ 1;
#X obj 1142 771 -~ 1;
#X obj 984 796 clip~ 0 1;
#X obj 1125 794 clip~ 0 1;
#X obj 1136 906 vsl 15 128 0 1 0 0 empty empty empty 0 -9 0 10 #fcfcfc #000000 #000000 0 1;
#X obj 1221 832 inlet;
#X msg 1187 878 0.3;
#X msg 548 424 261.6;
#X msg 604 424 277.2;
#X msg 660 422 293.7;
#X msg 708 422 311.1;
#X msg 758 420 329.6;
#X msg 809 422 349.2;
#X msg 869 422 370;
#X msg 910 424 392;
#X msg 956 426 415;
#X msg 1000 427 440;
#X msg 1046 428 466.2;
#X msg 1105 428 493.9;
#X obj 708 284 select 0 1 2 3 4 5 6 7 8 9 10 11;
#X obj 755 239 random 12;
#X obj 789 185 bng 19 250 50 0 empty empty empty 0 -10 0 12 #fcfcfc #000000 #000000;
#X text 617 93 All Semitones;
#X msg 1449 434 392;
#X msg 1513 434 440;
#X obj 1354 220 bng 19 250 50 0 empty empty empty 0 -10 0 12 #fcfcfc #000000 #000000;
#X obj 1363 304 select 0 1 2 3 4 5;
#X obj 1411 261 random 5;
#X msg 1218 440 261.63;
#X msg 1276 436 293.66;
#X msg 1339 437 311.13;
#X msg 1391 437 329.63;
#X text 1468 76 C Major Blues;
#X obj 1691 309 random 12;
#X obj 1715 241 bng 19 250 50 0 empty empty empty 0 -10 0 12 #fcfcfc #000000 #000000;
#X msg 1574 450 440;
#X msg 1608 450 493.883;
#X msg 1672 451 523.25;
#X msg 1729 451 587.33;
#X msg 1789 451 659.25;
#X msg 1849 451 698.46;
#X msg 1909 451 830.61;
#X obj 1641 360 select 0 1 2 3 4 5 6;
#X text 1644 125 A Minor Harmonic;
#X obj 840 127 spigot;
#X obj 836 90 bng 19 250 50 0 empty empty empty 0 -10 0 12 #fcfcfc #000000 #000000;
#X obj 891 82 tgl 19 0 empty empty empty 0 -10 0 12 #fcfcfc #000000 #000000 0 1;
#X obj 1252 102 tgl 19 0 empty empty empty 0 -10 0 12 #fcfcfc #000000 #000000 0 1;
#X obj 1203 150 spigot;
#X obj 1191 95 bng 19 250 50 0 empty empty empty 0 -10 0 12 #fcfcfc #000000 #000000;
#X obj 1689 201 spigot;
#X obj 1733 168 tgl 19 0 empty empty empty 0 -10 0 12 #fcfcfc #000000 #000000 0 1;
#X obj 1661 168 bng 19 250 50 0 empty empty empty 0 -10 0 12 #fcfcfc #000000 #000000;
#X obj 907 45 receive AllSemi;
#X obj 1257 37 receive CMajorBlue;
#X obj 1787 115 receive AMinorHarm;
#X obj 975 -28 receive triangle;
#X obj 1066 861 r triangleVol;
#X connect 0 0 9 0;
#X connect 1 0 2 0;
#X connect 1 0 2 1;
#X connect 3 0 8 0;
#X connect 4 0 3 0;
#X connect 5 0 1 0;
#X connect 6 0 0 1;
#X connect 6 0 3 1;
#X connect 7 0 6 0;
#X connect 8 0 11 0;
#X connect 9 0 10 0;
#X connect 10 0 12 0;
#X connect 11 0 13 0;
#X connect 12 0 5 0;
#X connect 13 0 5 1;
#X connect 14 0 1 1;
#X connect 15 0 16 0;
#X connect 16 0 14 0;
#X connect 17 0 0 0;
#X connect 18 0 0 0;
#X connect 19 0 0 0;
#X connect 20 0 0 0;
#X connect 21 0 0 0;
#X connect 23 0 0 0;
#X connect 24 0 0 0;
#X connect 25 0 0 0;
#X connect 26 0 0 0;
#X connect 27 0 0 0;
#X connect 28 0 0 0;
#X connect 29 0 17 0;
#X connect 29 1 18 0;
#X connect 29 2 19 0;
#X connect 29 3 20 0;
#X connect 29 4 21 0;
#X connect 29 5 22 0;
#X connect 29 6 23 0;
#X connect 29 7 24 0;
#X connect 29 8 25 0;
#X connect 29 9 26 0;
#X connect 29 10 27 0;
#X connect 29 11 28 0;
#X connect 30 0 29 0;
#X connect 31 0 30 0;
#X connect 33 0 0 0;
#X connect 34 0 0 0;
#X connect 35 0 37 0;
#X connect 36 0 38 0;
#X connect 36 1 39 0;
#X connect 36 2 40 0;
#X connect 36 3 41 0;
#X connect 36 4 33 0;
#X connect 36 5 34 0;
#X connect 37 0 36 0;
#X connect 38 0 0 0;
#X connect 39 0 0 0;
#X connect 40 0 0 0;
#X connect 41 0 0 0;
#X connect 43 0 52 0;
#X connect 44 0 43 0;
#X connect 45 0 0 0;
#X connect 46 0 0 0;
#X connect 47 0 0 0;
#X connect 48 0 0 0;
#X connect 49 0 0 0;
#X connect 50 0 0 0;
#X connect 51 0 0 0;
#X connect 52 0 45 0;
#X connect 52 1 46 0;
#X connect 52 2 47 0;
#X connect 52 3 48 0;
#X connect 52 4 49 0;
#X connect 52 5 50 0;
#X connect 52 6 51 0;
#X connect 54 0 31 0;
#X connect 55 0 54 0;
#X connect 56 0 54 1;
#X connect 57 0 58 1;
#X connect 58 0 35 0;
#X connect 59 0 58 0;
#X connect 60 0 44 0;
#X connect 61 0 60 1;
#X connect 62 0 60 0;
#X connect 63 0 56 0;
#X connect 64 0 57 0;
#X connect 65 0 61 0;
#X connect 66 0 55 0;
#X connect 66 0 59 0;
#X connect 66 0 62 0;
#X connect 67 0 14 0;
#X restore 912 309 pd triangle;
#X obj 80 67 tgl 15 0 empty empty empty 17 7 0 10 #fcfcfc #000000 #000000 0 1;
#X msg 80 92 \; pd dsp \$1;
#N canvas 177 218 1221 650 Sampler 0;
#X obj 690 201 soundfiler;
#X floatatom 690 225 15 0 0 0 - - - 0;
#X obj 690 251 / 44100;
#X obj 689 280 * 1000;
#X floatatom 689 306 5 0 0 0 - - - 0;
#X obj 717 102 bng 19 250 50 0 empty empty empty 0 -10 0 12 #fcfcfc #000000 #000000;
#N canvas 212 36 450 300 (subpatch) 0;
#X array soundData 8011 float 0;
#X coords 0 1 8010 -1 300 100 1 0 0;
#X restore 962 456 graph;
#X msg 701 156 read -resize NOPEN.WAV soundData;
#X text 1072 82 arm here with sample;
#X obj 512 93 bng 19 250 50 0 empty empty empty 0 -10 0 12 #fcfcfc #000000 #000000;
#X obj 525 194 tabplay~ soundData;
#X obj 541 336 dac~;
#X obj 478 31 receive sampler;
#X obj 709 46 inlet;
#X obj 545 262 *~;
#X obj 431 159 vsl 19 162 0 1 0 0 empty empty empty 0 -9 0 12 #fcfcfc #000000 #000000 0 1;
#X obj 367 110 r samplerVol;
#X connect 0 0 1 0;
#X connect 1 0 2 0;
#X connect 2 0 3 0;
#X connect 3 0 4 0;
#X connect 5 0 7 0;
#X connect 7 0 0 0;
#X connect 9 0 10 0;
#X connect 10 0 14 1;
#X connect 12 0 9 0;
#X connect 13 0 5 0;
#X connect 14 0 11 0;
#X connect 14 0 11 1;
#X connect 15 0 14 0;
#X connect 16 0 15 0;
#X restore 1087 313 pd Sampler;
#N canvas 342 239 665 734 noise 0;
#X obj 142 70 noise~;
#X obj 130 193 *~;
#X obj 119 313 dac~;
#X obj 217 63 bng 19 250 50 0 empty empty empty 0 -10 0 12 #fcfcfc #000000 #000000;
#X obj 175 155 vline~;
#X obj 186 26 receive noise;
#X msg 201 112 0.5 50 0 \, 0 100 200;
#X obj 130 237 *~;
#X obj 212 204 r noiseVol;
#X connect 0 0 1 0;
#X connect 1 0 7 0;
#X connect 3 0 6 0;
#X connect 4 0 1 1;
#X connect 5 0 3 0;
#X connect 6 0 4 0;
#X connect 7 0 2 0;
#X connect 7 0 2 1;
#X connect 8 0 7 1;
#X restore 791 313 pd noise;
#X obj 692 146 bng 19 250 50 0 empty empty empty 0 -10 0 12 #fcfcfc #000000 #000000;
#X obj 335 230 bng 19 250 50 0 empty empty empty 0 -10 0 12 #fcfcfc #000000 #000000;
#X obj 500 250 bng 19 250 50 0 empty empty empty 0 -10 0 12 #fcfcfc #000000 #000000;
#X obj 680 248 bng 19 250 50 0 empty empty empty 0 -10 0 12 #fcfcfc #000000 #000000;
#X obj 897 236 bng 19 250 50 0 empty empty empty 0 -10 0 12 #fcfcfc #000000 #000000;
#X obj 1087 249 bng 19 250 50 0 empty empty empty 0 -10 0 12 #fcfcfc #000000 #000000;
#X text 229 604 AllSemi;
#X text 338 608 CMajorBlue;
#X text 491 612 AMinorHarm;
#X obj 242 637 bng 19 250 50 0 empty empty empty 0 -10 0 12 #fcfcfc #000000 #000000;
#X obj 216 718 send AllSemi;
#X obj 365 637 bng 19 250 50 0 empty empty empty 0 -10 0 12 #fcfcfc #000000 #000000;
#X obj 335 717 send CMajorBlue;
#X obj 506 640 bng 19 250 50 0 empty empty empty 0 -10 0 12 #fcfcfc #000000 #000000;
#X obj 476 718 send AMinorHarm;
#X text 214 764 you must send another bang to initial send as it does not switch automatically;
#X obj 983 782 send ChangeOctave1, f 29;
#X msg 969 695 8;
#X msg 1009 695 7;
#X msg 1050 696 6;
#X msg 1092 696 5;
#X msg 1137 697 4;
#X msg 1185 695 3;
#X msg 1229 697 2;
#X msg 1274 699 1;
#X obj 967 647 bng 19 250 50 0 empty empty empty 0 -10 0 12 #fcfcfc #000000 #000000;
#X obj 1015 643 bng 19 250 50 0 empty empty empty 0 -10 0 12 #fcfcfc #000000 #000000;
#X obj 1060 635 bng 19 250 50 0 empty empty empty 0 -10 0 12 #fcfcfc #000000 #000000;
#X obj 1106 639 bng 19 250 50 0 empty empty empty 0 -10 0 12 #fcfcfc #000000 #000000;
#X obj 1147 643 bng 19 250 50 0 empty empty empty 0 -10 0 12 #fcfcfc #000000 #000000;
#X obj 1200 642 bng 19 250 50 0 empty empty empty 0 -10 0 12 #fcfcfc #000000 #000000;
#X obj 1240 642 bng 19 250 50 0 empty empty empty 0 -10 0 12 #fcfcfc #000000 #000000;
#X obj 1288 646 bng 19 250 50 0 empty empty empty 0 -10 0 12 #fcfcfc #000000 #000000;
#X msg 1410 713 8;
#X msg 1450 713 7;
#X msg 1491 714 6;
#X msg 1533 714 5;
#X msg 1578 715 4;
#X msg 1626 713 3;
#X msg 1670 715 2;
#X msg 1715 717 1;
#X obj 1408 665 bng 19 250 50 0 empty empty empty 0 -10 0 12 #fcfcfc #000000 #000000;
#X obj 1456 661 bng 19 250 50 0 empty empty empty 0 -10 0 12 #fcfcfc #000000 #000000;
#X obj 1501 653 bng 19 250 50 0 empty empty empty 0 -10 0 12 #fcfcfc #000000 #000000;
#X obj 1547 657 bng 19 250 50 0 empty empty empty 0 -10 0 12 #fcfcfc #000000 #000000;
#X obj 1588 661 bng 19 250 50 0 empty empty empty 0 -10 0 12 #fcfcfc #000000 #000000;
#X obj 1641 660 bng 19 250 50 0 empty empty empty 0 -10 0 12 #fcfcfc #000000 #000000;
#X obj 1681 660 bng 19 250 50 0 empty empty empty 0 -10 0 12 #fcfcfc #000000 #000000;
#X obj 1729 664 bng 19 250 50 0 empty empty empty 0 -10 0 12 #fcfcfc #000000 #000000;
#X obj 1424 800 send ChangeOctave2, f 29;
#N canvas 1916 0 1920 976 pulseWave 0;
#N canvas 0 50 450 300 (subpatch) 0;
#X array waveform2 2051 float 0;
#X coords 0 1 2050 -1 200 100 1 0 0;
#X restore 918 32 graph;
#X obj 1680 919 * -1;
#X obj 1729 785 bng 15 250 50 0 empty wave1 empty 17 7 0 10 #fcfcfc #000000 #000000;
#X obj 1624 1013 +~;
#X obj 1635 1046 -~ 1;
#X obj 1569 970 phasor~;
#X msg 1604 925 0;
#X obj 1824 745 bng 15 250 50 0 empty wave2 empty 17 7 0 10 #fcfcfc #000000 #000000;
#X obj 1870 821 bng 15 250 50 0 empty wave3 empty 17 7 0 10 #fcfcfc #000000 #000000;
#X obj 1677 966 phasor~;
#X obj 1986 733 loadbang;
#X obj 1637 1232 *~;
#X obj 1628 1277 dac~;
#X obj 1687 1100 vsl 15 128 0 1 0 0 empty empty empty 0 -9 0 10 #fcfcfc #000000 #000000 0 1;
#X obj 1870 1202 metro 100;
#X obj 1871 1172 tgl 15 0 empty empty empty 17 7 0 10 #fcfcfc #000000 #000000 0 1;
#X msg 1303 546 261.6;
#X msg 1347 549 277.2;
#X msg 1403 547 293.7;
#X msg 1451 547 311.1;
#X msg 1501 545 329.6;
#X msg 1552 547 349.2;
#X msg 1612 547 370;
#X msg 1653 549 392;
#X msg 1699 551 415;
#X msg 1743 552 440;
#X msg 1789 553 466.2;
#X msg 1848 553 493.9;
#X obj 1451 409 select 0 1 2 3 4 5 6 7 8 9 10 11;
#X obj 1498 364 random 12;
#X obj 1532 310 bng 19 250 50 0 empty empty empty 0 -10 0 12 #fcfcfc #000000 #000000;
#X text 1360 218 All Semitones;
#X msg 1729 898 0.125;
#X msg 1815 882 0.25;
#X msg 1895 904 0.5;
#X msg 1961 925 0.75;
#X obj 1921 780 bng 15 250 50 0 empty wave3 empty 17 7 0 10 #fcfcfc #000000 #000000;
#X msg 2192 559 392;
#X msg 2256 559 440;
#X obj 2097 345 bng 19 250 50 0 empty empty empty 0 -10 0 12 #fcfcfc #000000 #000000;
#X obj 2106 429 select 0 1 2 3 4 5;
#X obj 2154 386 random 5;
#X msg 1961 565 261.63;
#X msg 2019 561 293.66;
#X msg 2082 562 311.13;
#X msg 2134 562 329.63;
#X text 2211 201 C Major Blues;
#X obj 2434 434 random 12;
#X obj 2458 366 bng 19 250 50 0 empty empty empty 0 -10 0 12 #fcfcfc #000000 #000000;
#X msg 2317 575 440;
#X msg 2351 575 493.883;
#X msg 2415 576 523.25;
#X msg 2472 576 587.33;
#X msg 2532 576 659.25;
#X msg 2592 576 698.46;
#X msg 2652 576 830.61;
#X obj 2384 485 select 0 1 2 3 4 5 6;
#X text 2387 250 A Minor Harmonic;
#X text 2232 24 Make it so that unity gives the players a prompt \, and based on what they select in the drop down press one of these buttons;
#X floatatom 1365 855 5 1 8 0 - - - 0;
#X obj 1556 883 /;
#X obj 1794 1024 inlet;
#X msg 1783 1070 0.5;
#X obj 1583 252 spigot;
#X obj 1579 215 bng 19 250 50 0 empty empty empty 0 -10 0 12 #fcfcfc #000000 #000000;
#X obj 1634 207 tgl 19 0 empty empty empty 0 -10 0 12 #fcfcfc #000000 #000000 0 1;
#X obj 1995 227 tgl 19 0 empty empty empty 0 -10 0 12 #fcfcfc #000000 #000000 0 1;
#X obj 1946 275 spigot;
#X obj 1934 220 bng 19 250 50 0 empty empty empty 0 -10 0 12 #fcfcfc #000000 #000000;
#X obj 2432 326 spigot;
#X obj 2476 293 tgl 19 0 empty empty empty 0 -10 0 12 #fcfcfc #000000 #000000 0 1;
#X obj 2404 293 bng 19 250 50 0 empty empty empty 0 -10 0 12 #fcfcfc #000000 #000000;
#X obj 1650 170 receive AllSemi;
#X obj 2000 162 receive CMajorBlue;
#X obj 2530 240 receive AMinorHarm;
#X obj 1636 1087 *~ 1;
#X obj 1718 97 receive pulse2;
#X obj 1159 783 receive ChangeOctave2;
#X obj 1870 1234 tabwrite~ waveform2;
#X obj 1695 1025 r pulse2Vol;
#X connect 1 0 9 0;
#X connect 2 0 32 0;
#X connect 2 0 6 0;
#X connect 3 0 4 0;
#X connect 4 0 75 0;
#X connect 5 0 3 0;
#X connect 6 0 5 1;
#X connect 7 0 33 0;
#X connect 7 0 6 0;
#X connect 8 0 34 0;
#X connect 8 0 6 0;
#X connect 9 0 3 1;
#X connect 10 0 2 0;
#X connect 11 0 12 0;
#X connect 11 0 12 1;
#X connect 11 0 78 0;
#X connect 13 0 11 1;
#X connect 14 0 78 0;
#X connect 15 0 14 0;
#X connect 16 0 60 0;
#X connect 17 0 60 0;
#X connect 18 0 60 0;
#X connect 19 0 60 0;
#X connect 20 0 60 0;
#X connect 21 0 60 0;
#X connect 22 0 60 0;
#X connect 23 0 60 0;
#X connect 24 0 60 0;
#X connect 25 0 60 0;
#X connect 26 0 60 0;
#X connect 27 0 60 0;
#X connect 28 0 16 0;
#X connect 28 1 17 0;
#X connect 28 2 18 0;
#X connect 28 3 19 0;
#X connect 28 4 20 0;
#X connect 28 5 21 0;
#X connect 28 6 22 0;
#X connect 28 7 23 0;
#X connect 28 8 24 0;
#X connect 28 9 25 0;
#X connect 28 10 26 0;
#X connect 28 11 27 0;
#X connect 29 0 28 0;
#X connect 30 0 29 0;
#X connect 32 0 9 1;
#X connect 33 0 9 1;
#X connect 34 0 9 1;
#X connect 35 0 9 1;
#X connect 36 0 35 0;
#X connect 36 0 6 0;
#X connect 37 0 60 0;
#X connect 38 0 60 0;
#X connect 39 0 41 0;
#X connect 40 0 42 0;
#X connect 40 1 43 0;
#X connect 40 2 44 0;
#X connect 40 3 45 0;
#X connect 40 4 37 0;
#X connect 40 5 38 0;
#X connect 41 0 40 0;
#X connect 42 0 60 0;
#X connect 43 0 60 0;
#X connect 44 0 60 0;
#X connect 45 0 60 0;
#X connect 47 0 56 0;
#X connect 48 0 47 0;
#X connect 49 0 60 0;
#X connect 50 0 60 0;
#X connect 51 0 60 0;
#X connect 52 0 60 0;
#X connect 53 0 60 0;
#X connect 54 0 60 0;
#X connect 55 0 60 0;
#X connect 56 0 49 0;
#X connect 56 1 50 0;
#X connect 56 2 51 0;
#X connect 56 3 52 0;
#X connect 56 4 53 0;
#X connect 56 5 54 0;
#X connect 56 6 55 0;
#X connect 59 0 60 1;
#X connect 60 0 5 0;
#X connect 60 0 1 0;
#X connect 61 0 62 0;
#X connect 62 0 13 0;
#X connect 63 0 30 0;
#X connect 64 0 63 0;
#X connect 65 0 63 1;
#X connect 66 0 67 1;
#X connect 67 0 39 0;
#X connect 68 0 67 0;
#X connect 69 0 48 0;
#X connect 70 0 69 1;
#X connect 71 0 69 0;
#X connect 72 0 65 0;
#X connect 73 0 66 0;
#X connect 74 0 70 0;
#X connect 75 0 11 0;
#X connect 76 0 64 0;
#X connect 76 0 68 0;
#X connect 76 0 71 0;
#X connect 77 0 59 0;
#X connect 79 0 13 0;
#X restore 491 304 pd pulseWave;
#N canvas 342 150 885 462 oscReceive 1;
#X obj 55 184 netreceive -u -b;
#X msg 78 143 listen 0;
#X text 152 143 stop listening;
#X text 64 58 packets from network;
#X text 173 177 UDP packets \, binary output, f 13;
#X obj 45 314 print;
#X obj 45 272 oscparse;
#X text 150 114 listen on port 8000;
#X obj 177 269 oscparse;
#X obj 177 293 list trim;
#X floatatom 140 380 5 0 0 0 - - - 0;
#X text 241 267 Parse the OSC message;
#X obj 177 319 route unity;
#X msg 66 115 listen 8000;
#X obj 66 84 loadbang;
#X floatatom 291 385 5 0 0 0 - - - 0;
#X floatatom 413 381 5 0 0 0 - - - 0;
#X floatatom 546 382 5 0 1 0 - - - 0;
#X obj 139 356 route scale;
#X obj 140 407 send newScale;
#X obj 290 362 route octave1;
#X obj 412 358 route octave2;
#X obj 291 412 send newOctave1;
#X obj 413 408 send newOctave2;
#X obj 545 359 route start;
#X obj 546 409 s startPatch;
#X floatatom 647 382 5 0 1 0 - - - 0;
#X obj 646 359 route mute;
#X obj 647 409 s toggleMute;
#X connect 0 0 6 0;
#X connect 0 0 8 0;
#X connect 1 0 0 0;
#X connect 6 0 5 0;
#X connect 8 0 9 0;
#X connect 9 0 12 0;
#X connect 10 0 19 0;
#X connect 12 0 18 0;
#X connect 12 0 20 0;
#X connect 12 0 21 0;
#X connect 12 0 24 0;
#X connect 12 0 27 0;
#X connect 13 0 0 0;
#X connect 14 0 13 0;
#X connect 15 0 22 0;
#X connect 16 0 23 0;
#X connect 17 0 25 0;
#X connect 18 0 10 0;
#X connect 20 0 15 0;
#X connect 21 0 16 0;
#X connect 24 0 17 0;
#X connect 26 0 28 0;
#X connect 27 0 26 0;
#X restore 71 201 pd oscReceive;
#N canvas 727 97 450 300 oscSend 0;
#X msg 158 207 disconnect;
#X obj 61 253 netsend -u -b;
#X obj 59 55 list prepend send;
#X obj 59 80 list trim;
#X obj 59 29 r oscOut;
#X text 301 163 send to port 8001;
#X obj 147 108 loadbang;
#X obj 78 126 print;
#X msg 147 148 connect localhost 8001;
#X msg 150 175 connect 127.0.0.1 8001;
#X connect 0 0 1 0;
#X connect 2 0 3 0;
#X connect 3 0 1 0;
#X connect 3 0 7 0;
#X connect 4 0 2 0;
#X connect 6 0 8 0;
#X connect 8 0 1 0;
#X connect 9 0 1 0;
#X restore 71 177 pd oscSend;
#X obj 327 515 receive newScale;
#X obj 336 553 select 0 1 2;
#X text 435 542 Receive scale from Unity;
#X obj 661 99 receive startPatch;
#X obj 1006 546 receive newOctave1;
#X obj 1455 546 receive newOctave2;
#X obj 1007 571 select 8 7 6 5 4 3 2 1;
#X obj 1456 573 select 8 7 6 5 4 3 2 1;
#X text 1193 573 Receive octave 1 and 2 from Unity;
#X obj 1322 122 vsl 19 162 0 1 0 1 empty empty empty 0 -9 0 12 #fcfcfc #000000 #000000 8600 1;
#X obj 1392 122 vsl 19 162 0 1 0 1 empty empty empty 0 -9 0 12 #fcfcfc #000000 #000000 7900 1;
#X obj 1467 129 vsl 19 162 0 1 0 1 empty empty empty 0 -9 0 12 #fcfcfc #000000 #000000 7700 1;
#X obj 1527 126 vsl 19 162 0 1 0 1 empty empty empty 0 -9 0 12 #fcfcfc #000000 #000000 7400 1;
#X obj 1226 296 send pulse1Vol;
#X obj 1353 309 send pulse2Vol;
#X obj 1470 318 send noiseVol;
#X obj 1584 310 send triangleVol;
#X obj 1617 116 vsl 19 162 0 1 0 1 empty empty empty 0 -9 0 12 #fcfcfc #000000 #000000 14900 1;
#X obj 1672 277 send samplerVol;
#X text 506 35 WARNING: Set scale and both octaves before starting patch! (Unity does this automatically), f 92;
#X text 604 396 Must select octaves + major scale before start;
#X text 1404 84 VOLUME CONTROL;
#X text 41 155 Unity connection subpatches;
#X text 1186 490 SELECT OCTAVES: click bang to select octaves for either pulsewave (or use sliders in Unity), f 41;
#X text 612 61 Press bang below to manually start patch AFTER selecting scale and octaves (or use start button in Unity);
#X text 97 479 SELECT SCALE: click bang to select scale. If changing from one scale to another \, click again to turn off current one before selecting new one.(Or just use dropdown in Unity), f 30;
#X obj 73 31 r toggleMute;
#X connect 3 0 4 0;
#X connect 7 0 8 0;
#X connect 7 0 9 0;
#X connect 7 0 10 0;
#X connect 7 0 11 0;
#X connect 7 0 12 0;
#X connect 8 0 0 0;
#X connect 9 0 57 0;
#X connect 10 0 1 0;
#X connect 11 0 2 0;
#X connect 12 0 5 0;
#X connect 16 0 17 0;
#X connect 18 0 19 0;
#X connect 20 0 21 0;
#X connect 24 0 23 0;
#X connect 25 0 23 0;
#X connect 26 0 23 0;
#X connect 27 0 23 0;
#X connect 28 0 23 0;
#X connect 29 0 23 0;
#X connect 30 0 23 0;
#X connect 31 0 23 0;
#X connect 32 0 24 0;
#X connect 33 0 25 0;
#X connect 34 0 26 0;
#X connect 35 0 27 0;
#X connect 36 0 28 0;
#X connect 37 0 29 0;
#X connect 38 0 30 0;
#X connect 39 0 31 0;
#X connect 40 0 56 0;
#X connect 41 0 56 0;
#X connect 42 0 56 0;
#X connect 43 0 56 0;
#X connect 44 0 56 0;
#X connect 45 0 56 0;
#X connect 46 0 56 0;
#X connect 47 0 56 0;
#X connect 48 0 40 0;
#X connect 49 0 41 0;
#X connect 50 0 42 0;
#X connect 51 0 43 0;
#X connect 52 0 44 0;
#X connect 53 0 45 0;
#X connect 54 0 46 0;
#X connect 55 0 47 0;
#X connect 60 0 61 0;
#X connect 61 0 16 0;
#X connect 61 1 18 0;
#X connect 61 2 20 0;
#X connect 63 0 7 0;
#X connect 64 0 66 0;
#X connect 65 0 67 0;
#X connect 66 0 32 0;
#X connect 66 1 33 0;
#X connect 66 2 34 0;
#X connect 66 3 35 0;
#X connect 66 4 36 0;
#X connect 66 5 37 0;
#X connect 66 6 38 0;
#X connect 66 7 39 0;
#X connect 67 0 48 0;
#X connect 67 1 49 0;
#X connect 67 2 50 0;
#X connect 67 3 51 0;
#X connect 67 4 52 0;
#X connect 67 5 53 0;
#X connect 67 6 54 0;
#X connect 67 7 55 0;
#X connect 69 0 73 0;
#X connect 70 0 74 0;
#X connect 71 0 75 0;
#X connect 72 0 76 0;
#X connect 77 0 78 0;
#X connect 86 0 3 0;
